<?xml version="1.0" encoding="utf-8"?>
<!-- Generator: Adobe Illustrator 23.0.1, SVG Export Plug-In . SVG Version: 6.00 Build 0)  -->
<svg version="1.1" id="Layer_1" xmlns="http://www.w3.org/2000/svg" xmlns:xlink="http://www.w3.org/1999/xlink" x="0px"
     y="0px"
     viewBox="0 0 237.4 298.3" style="enable-background:new 0 0 237.4 298.3;background-color: #f3dbc5; transform: scale(.3)" xml:space="preserve">
<style type="text/css">
	.st0{fill:#FFFFFF;}
	.st1{fill:none;stroke:#FFFFFF;stroke-width:31.6684;stroke-linecap:round;stroke-miterlimit:10;}
	.st2{fill:#FFEBD9;}
	.st3{fill:#6F2729;}
	.st4{fill:#ED2424;}
</style>
    <title>logo_final</title>
    <path class="st0" d="M139,181.5c-5.5,0-9.9-4.4-9.9-9.9c0.2-4.1-3-7.6-7.2-7.8c-4.1-0.2-7.6,3-7.8,7.2c0,0.2,0,0.4,0,0.6
	c0,5.5-4.4,9.9-9.9,9.9c-5.5,0-9.9-4.4-9.9-9.9c-0.3-15,11.6-27.5,26.6-27.8c15-0.3,27.5,11.6,27.8,26.6c0,0.4,0,0.8,0,1.2
	C148.9,177,144.5,181.5,139,181.5z"/>
    <path class="st1" d="M142.1,152.2"/>
    <path class="st1" d="M163.4,131.5"/>
    <path class="st1" d="M1.9,74.7"/>
    <path class="st1" d="M101.7,8.7"/>
    <path class="st1" d="M224,67.1"/>
    <path class="st0" d="M121.4,162.8c-5.5,0.1-9.9-4.3-10-9.8c-0.1-5.1,3.7-9.3,8.7-9.9c14.6-1.9,17.6-5.4,17.9-5.8
	c-0.2-1-0.6-2-1.2-2.9c-2.9-4.7-12.3-6.4-25.1-4.4l-0.8,0.1c-3.1,0.4-6.2,1.3-9.1,2.6c-6.6,2.6-14.8,5.8-26.8,3.6
	c-9.8-1.8-16.8-7.4-19.8-16c-3.6-10.3-0.1-23.1,5.1-28.9c8.8-9.9,19.8-14,41.7-15.8c21.2-1.8,54.7,3.1,78.3,17.9
	c3.2,2,7.3,1.3,9.7-1.6l0.3-0.4c1.8-2,2.6-4.6,2.3-7.2c-0.6-2.6-2.3-4.9-4.8-6.2c-27-16.3-58.6-23.2-89.9-19.5
	c-23.1,2.6-35,8.2-53,19.8c-0.5,0.3-0.9,0.6-1.4,0.9c-10.9,6.4-24.8,4.3-33.4-4.9C1.3,65.2-0.2,51,6.8,40.1l0.2-0.3
	C8,38.3,33.3,2.1,113.9,0h0.3c2.9,0,72.3,0.9,111.1,33.1c4.2,3.5,4.8,9.7,1.3,13.9c-3.5,4.2-9.7,4.8-13.9,1.3l0,0
	c-32.7-27.1-95.2-28.6-98.6-28.6c-20.1,0.5-48.8,3.8-72,16.4C29.6,43,24.1,49.8,23.3,50.8c-1.9,3.2-1.3,7.3,1.3,9.9
	c2.4,2.7,6.3,3.3,9.4,1.4l0.6-0.3C54.4,49,69.4,42,96.1,39c35.6-4.1,71.5,3.7,102.2,22.2c13.5,7.5,18.4,24.4,10.9,37.9
	c-1,1.7-2.1,3.4-3.4,4.9l-0.3,0.4c-8.7,10.6-23.9,13.1-35.6,5.8c-18.8-11.9-47.5-16.5-66.1-14.9c-20.1,1.7-24.9,5.2-28.6,9.2
	c-1,1.4-2.4,6.5-1.1,9.6c0.3,0.7,0.8,2.1,4.4,2.7c6.6,1.2,10.8-0.5,16.2-2.6c4.6-2,9.5-3.3,14.5-3.9c15.2-2.2,35.1-1.6,44.5,13.7
	c4.6,7.4,5.3,15.1,2.2,21.7c-4.4,9.1-15.2,14.6-33.3,16.9C122.3,162.7,121.8,162.8,121.4,162.8z"/>
    <path class="st1" d="M115.1,177.7"/>
    <path class="st1" d="M133.7,162.5"/>
    <polygon class="st2" points="120.9,181.7 93.4,165.1 93.2,165 65.6,148.2 51.8,157.8 118.7,198.3 "/>
    <path class="st3"
          d="M121.9,205.1L44.3,158l21.2-14.7l59.8,36.3L121.9,205.1z M59.4,157.5l56.1,34l1-7.7l-50.6-30.7L59.4,157.5z"/>
    <polygon class="st2" points="115.6,196.5 115.6,196.4 54.9,159.7 45.8,154.1 40.8,162.4 46.7,166 113.7,206.6 113.8,206.7
	119.6,210.2 124.6,201.9 "/>
    <path class="st3"
          d="M120.9,215.8l-85.8-52.1l9.2-15.3l85.8,52.1L120.9,215.8z M46.5,161l71.7,43.5l0.7-1.2l-71.7-43.5L46.5,161z"/>
    <polygon class="st4"
             points="80.5,186.5 80.2,186.3 46.9,166.1 6,261.9 26.6,274.4 27.1,274.7 47.4,287.1 113.5,206.5 "/>
    <path class="st3" d="M48.4,292.5L0.9,263.6L45,160.1l74.7,45.3L48.4,292.5z M11.2,260.3l35.3,21.4l60.8-74.2l-58.5-35.5L11.2,260.3z
	"/>
    <polygon class="st2" points="63,215.6 62.5,215.3 33.4,197.7 21.3,226.2 46.7,241.6 47,241.8 72.1,257 91.6,233 "/>
    <path class="st3"
          d="M73,262.4l-56.9-34.5l15.4-36.1l66.2,40.2L73,262.4z M26.5,224.5l44.7,27.1l14.3-17.6l-50.1-30.3L26.5,224.5z"
    />
    <polygon class="st2" points="182.5,153.1 153.8,167.4 153.6,167.5 124.6,181.9 125.4,198.7 195.4,163.8 "/>
    <path class="st3"
          d="M121.6,205.2l-1.2-25.8l62.7-31.2l19.8,16.5L121.6,205.2z M128.9,184.4l0.3,7.8l58.7-29.2l-6-5L128.9,184.4z"/>
    <polygon class="st2" points="192.2,165.4 192.1,165.5 128.7,197.1 119.1,201.8 123.4,210.5 129.6,207.4 199.8,172.4 199.9,172.4
	205.9,169.4 201.6,160.8 "/>
    <path class="st3"
          d="M121.6,216l-7.9-16l89.8-44.7l8,16L121.6,216z M124.7,203.7l0.6,1.3l75.1-37.5l-0.6-1.3L124.7,203.7z"/>
    <polygon class="st4"
             points="165,189.8 164.7,189.9 129.8,207.3 189,293 210.6,282.3 211.1,282 232.4,271.4 199.5,172.6 "/>
    <path class="st3" d="M187.7,298.3l-64-92.5l78.2-39l35.5,106.7L187.7,298.3z M135.9,208.9l54.5,78.9l36.9-18.5l-30.3-91L135.9,208.9
	z"/>
    <polygon class="st2"
             points="180.3,220.2 179.7,220.4 149.4,235.6 167,261.1 193.5,247.8 193.8,247.7 220.1,234.6 210.2,205.2 "/>
    <path class="st3" d="M165.6,266.3L143.3,234l69.4-34.6l12.6,37.2L165.6,266.3z M155.4,237.2l12.9,18.6l46.8-23.3l-7.2-21.4
	L155.4,237.2z"/>
</svg>
